<svg xmlns="http://www.w3.org/2000/svg" width="28" height="27.958" viewBox="0 0 28 27.958">
  <g id="_18_" data-name="18+" transform="translate(-647.885 -716.495)" opacity="0.237">
    <path id="Path_255" data-name="Path 255" d="M670.864,743.71h-1.928c-.741,0-1.122.127-1.122.741v.7c0,.614.381.741,1.122.741h.445c.275,0,.4.148.4.572v9.15c0,.741.127,1.122.742,1.122h.72c.615,0,.742-.381.742-1.122V744.451C671.987,743.837,671.6,743.71,670.864,743.71Z" transform="translate(-14.376 -19.632)" fill="#fff"/>
    <path id="Path_256" data-name="Path 256" d="M669.7,717.723a4.3,4.3,0,0,0-3.113-1.228h-9.4a4.262,4.262,0,0,0-3.113,1.228l-4.978,4.956a4.129,4.129,0,0,0-1.207,2.965V735.2a4.221,4.221,0,0,0,1.334,3.2l4.723,4.723a4.285,4.285,0,0,0,3.3,1.334h9.277a4.378,4.378,0,0,0,3.3-1.334l4.723-4.723a4.331,4.331,0,0,0,1.334-3.2v-9.552a4.127,4.127,0,0,0-1.207-2.965Zm4.342,11.183c0,.318-.148.487-.445.487h-1.419v-1c0-.741-.106-1.122-.742-1.122H670.8c-.635,0-.741.381-.741,1.122v1h-1c-.741,0-1.122.106-1.122.741v.678c0,.635.381.741,1.122.741h1v1c0,.741.106,1.123.741,1.123h.636c.636,0,.742-.381.742-1.123v-1H673.6a.406.406,0,0,1,.445.424V735.2a2.451,2.451,0,0,1-.784,1.906l-4.723,4.723a2.576,2.576,0,0,1-1.927.805h-9.447a2.576,2.576,0,0,1-1.927-.805l-4.723-4.723a2.407,2.407,0,0,1-.784-1.906v-9.34a2.749,2.749,0,0,1,.826-2.033l4.808-4.871a2.394,2.394,0,0,1,1.8-.635h9.447a2.394,2.394,0,0,1,1.8.635l4.808,4.871a2.833,2.833,0,0,1,.826,2.033Z" transform="translate(0 0)" fill="#fff"/>
    <path id="Path_257" data-name="Path 257" d="M694.926,749.375a2.649,2.649,0,0,0,1.207-2.478v-.72c-.127-2.394-.932-3.3-3.706-3.3s-3.579.911-3.706,3.3v.72a2.649,2.649,0,0,0,1.207,2.478c-1.419.551-1.525,1.758-1.525,3.346,0,2.351.826,3.516,4.024,3.579,3.2-.064,4.025-1.228,4.025-3.579C696.452,751.133,696.346,749.926,694.926,749.375Zm-2.5-4.554c1.165,0,1.631.424,1.631,1.843,0,1.376-.466,1.843-1.631,1.843s-1.63-.466-1.63-1.843C690.8,745.245,691.262,744.821,692.427,744.821Zm0,9.467c-1.355,0-1.842-.529-1.842-1.864s.487-1.948,1.842-1.948,1.843.614,1.843,1.948S693.782,754.289,692.427,754.289Z" transform="translate(-29.229 -19.029)" fill="#fff"/>
  </g>
</svg>
